<svg width="25" height="25" viewBox="0 0 25 25" fill="none" xmlns="http://www.w3.org/2000/svg">
<g id="fi-rr-home" clip-path="url(#clip0_146_183)">
<path id="Vector" d="M23.4277 9.39245L15.8427 1.80645C14.9039 0.870437 13.6323 0.344822 12.3067 0.344822C10.981 0.344822 9.70941 0.870437 8.77065 1.80645L1.18565 9.39245C0.906078 9.67023 0.684423 10.0007 0.533535 10.3648C0.382648 10.7289 0.30553 11.1193 0.306653 11.5134V21.3304C0.306653 22.1261 0.622723 22.8892 1.18533 23.4518C1.74794 24.0144 2.511 24.3304 3.30665 24.3304H21.3067C22.1023 24.3304 22.8654 24.0144 23.428 23.4518C23.9906 22.8892 24.3067 22.1261 24.3067 21.3304V11.5134C24.3078 11.1193 24.2307 10.7289 24.0798 10.3648C23.9289 10.0007 23.7072 9.67023 23.4277 9.39245ZM15.3067 22.3304H9.30665V18.3964C9.30665 17.6008 9.62272 16.8377 10.1853 16.2751C10.7479 15.7125 11.511 15.3964 12.3067 15.3964C13.1023 15.3964 13.8654 15.7125 14.428 16.2751C14.9906 16.8377 15.3067 17.6008 15.3067 18.3964V22.3304ZM22.3067 21.3304C22.3067 21.5957 22.2013 21.85 22.0138 22.0376C21.8262 22.2251 21.5719 22.3304 21.3067 22.3304H17.3067V18.3964C17.3067 17.0704 16.7799 15.7986 15.8422 14.8609C14.9045 13.9232 13.6327 13.3964 12.3067 13.3964C10.9806 13.3964 9.7088 13.9232 8.77112 14.8609C7.83344 15.7986 7.30665 17.0704 7.30665 18.3964V22.3304H3.30665C3.04144 22.3304 2.78708 22.2251 2.59955 22.0376C2.41201 21.85 2.30665 21.5957 2.30665 21.3304V11.5134C2.30758 11.2484 2.41284 10.9944 2.59965 10.8064L10.1847 3.22345C10.7484 2.66238 11.5113 2.34739 12.3067 2.34739C13.102 2.34739 13.865 2.66238 14.4287 3.22345L22.0137 10.8094C22.1997 10.9967 22.3049 11.2495 22.3067 11.5134V21.3304Z" fill="url(#paint0_linear_146_183)"/>
</g>
<defs>
<linearGradient id="paint0_linear_146_183" x1="0.977694" y1="10.2281" x2="25.3385" y2="0.167018" gradientUnits="userSpaceOnUse">
<stop stop-color="#DE6262"/>
<stop offset="1" stop-color="#FFB88C"/>
</linearGradient>
<clipPath id="clip0_146_183">
<rect width="24" height="24" fill="white" transform="translate(0.306641 0.32353)"/>
</clipPath>
</defs>
</svg>
