<svg width="25" height="25" viewBox="0 0 25 25" fill="none" xmlns="http://www.w3.org/2000/svg">
<g id="fi-rr-heart" clip-path="url(#clip0_146_193)">
<path id="Vector" d="M18.2871 2.24004C17.161 2.25756 16.0595 2.57189 15.0938 3.15131C14.1281 3.73073 13.3324 4.55471 12.7871 5.54004C12.2417 4.55471 11.446 3.73073 10.4803 3.15131C9.51461 2.57189 8.41312 2.25756 7.28707 2.24004C5.49201 2.31803 3.80077 3.1033 2.58285 4.42427C1.36493 5.74525 0.719317 7.49457 0.787068 9.29004C0.787068 13.837 5.57307 18.803 9.58707 22.17C10.4833 22.9232 11.6164 23.3361 12.7871 23.3361C13.9577 23.3361 15.0908 22.9232 15.9871 22.17C20.0011 18.803 24.7871 13.837 24.7871 9.29004C24.8548 7.49457 24.2092 5.74525 22.9913 4.42427C21.7734 3.1033 20.0821 2.31803 18.2871 2.24004ZM14.7021 20.64C14.1661 21.0914 13.4878 21.3389 12.7871 21.3389C12.0863 21.3389 11.4081 21.0914 10.8721 20.64C5.73407 16.329 2.78707 12.193 2.78707 9.29004C2.71871 8.02476 3.15343 6.78377 3.99643 5.83774C4.83943 4.89171 6.0223 4.31739 7.28707 4.24004C8.55183 4.31739 9.73471 4.89171 10.5777 5.83774C11.4207 6.78377 11.8554 8.02476 11.7871 9.29004C11.7871 9.55526 11.8924 9.80961 12.08 9.99715C12.2675 10.1847 12.5219 10.29 12.7871 10.29C13.0523 10.29 13.3066 10.1847 13.4942 9.99715C13.6817 9.80961 13.7871 9.55526 13.7871 9.29004C13.7187 8.02476 14.1534 6.78377 14.9964 5.83774C15.8394 4.89171 17.0223 4.31739 18.2871 4.24004C19.5518 4.31739 20.7347 4.89171 21.5777 5.83774C22.4207 6.78377 22.8554 8.02476 22.7871 9.29004C22.7871 12.193 19.8401 16.329 14.7021 20.636V20.64Z" fill="#282828" fill-opacity="0.55"/>
</g>
<defs>
<clipPath id="clip0_146_193">
<rect width="24" height="24" fill="white" transform="translate(0.787109 0.323507)"/>
</clipPath>
</defs>
</svg>
