<svg width="25" height="25" viewBox="0 0 25 25" fill="none" xmlns="http://www.w3.org/2000/svg">
<g id="fi-rr-zoom-out" clip-path="url(#clip0_146_187)">
<path id="Vector" d="M23.7732 22.6172L17.8042 16.6482C19.4308 14.6588 20.2306 12.1203 20.038 9.55778C19.8455 6.99525 18.6754 4.60475 16.7698 2.88074C14.8641 1.15673 12.3688 0.231108 9.79983 0.29534C7.23088 0.359572 4.78489 1.40874 2.9678 3.22583C1.15071 5.04292 0.101544 7.48891 0.0373123 10.0579C-0.0269195 12.6268 0.898699 15.1222 2.62271 17.0278C4.34672 18.9334 6.73722 20.1035 9.29975 20.2961C11.8623 20.4886 14.4008 19.6888 16.3902 18.0622L22.3592 24.0312C22.5478 24.2134 22.8004 24.3142 23.0626 24.3119C23.3248 24.3096 23.5756 24.2044 23.761 24.019C23.9464 23.8336 24.0516 23.5828 24.0539 23.3206C24.0561 23.0584 23.9554 22.8058 23.7732 22.6172ZM10.0662 18.3242C8.48394 18.3242 6.93722 17.855 5.62163 16.976C4.30603 16.0969 3.28065 14.8475 2.67515 13.3857C2.06965 11.9239 1.91122 10.3153 2.21991 8.76349C2.52859 7.21165 3.29051 5.78618 4.40933 4.66736C5.52815 3.54854 6.95362 2.78662 8.50547 2.47793C10.0573 2.16925 11.6658 2.32768 13.1277 2.93318C14.5895 3.53868 15.8389 4.56406 16.7179 5.87965C17.597 7.19525 18.0662 8.74197 18.0662 10.3242C18.0638 12.4452 17.2202 14.4787 15.7204 15.9784C14.2206 17.4782 12.1872 18.3218 10.0662 18.3242Z" fill="#282828" fill-opacity="0.55"/>
</g>
<defs>
<clipPath id="clip0_146_187">
<rect width="24" height="24" fill="white" transform="translate(0.0664062 0.323507)"/>
</clipPath>
</defs>
</svg>
